<?xml version="1.0" encoding="UTF-8"?>
<svg  className="absolute top-0 right-0 hidden -mt-20 -mr-20 md:block"
            width={404}
            height={384}
            fill="none"
            viewBox="0 0 404 384"
            aria-hidden="true" >
    <g id="Page-1" stroke="none" stroke-width="1" fill="none" fill-rule="evenodd">
        <g id="Group" fill-rule="nonzero">
            <circle id="Oval" fill="#D4D4D4" cx="978" cy="978" r="978"></circle>
            <g transform="translate(365.000000, 505.000000)" fill="#FFFFFF" id="Shape">
                <path d="M1033.83816,374.110386 C981.936123,374.110386 938.6741,411.393593 929.114999,460.571359 L850.052789,406.343908 C844.870732,402.769834 837.659852,404.106851 834.066634,409.340783 C830.471786,414.597542 831.785225,421.768519 837.060168,425.36542 L918.1952,481.022827 L837.060168,536.680234 C840.758365,535.08009 845.02436,535.537804 848.299395,537.886131 C851.574431,540.234459 853.378663,544.129332 853.052841,548.1476 L932.115051,493.920149 C941.674152,543.122373 984.937804,580.358295 1036.83822,580.358295 C1095.76537,580.358295 1143.70428,532.422976 1143.70428,473.468681 C1143.70428,414.55841 1095.76537,366.579068 1036.83822,366.579068 L1033.83816,374.110386 Z M1033.83816,564.879878 C987.649421,564.879878 950.077883,527.273831 950.077883,481.045654 C950.077883,434.794651 987.649421,397.167407 1033.83816,397.167407 C1080.07254,397.167407 1117.66852,434.794651 1117.66852,481.045654 C1117.66852,527.273831 1080.07254,564.879878 1033.83816,564.879878 L1033.83816,564.879878 Z M1033.84631,748.222403 C981.949159,748.222403 938.690396,785.477892 929.129665,834.650766 L850.052789,780.452664 C844.846289,776.855763 837.682666,778.169953 834.066634,783.447908 C830.471786,788.704668 831.785225,795.874014 837.060168,799.448088 L927.724969,861.576983 C931.156859,917.4594 977.181015,962 1033.84631,962 C1092.76857,962 1140.70423,914.025549 1140.70423,855.054949 C1140.70423,796.1512 1092.76857,748.222403 1033.84631,748.222403 Z M1033.84631,938.969068 C987.660828,938.969068 950.092549,901.345085 950.092549,855.076146 C950.092549,808.854492 987.660828,771.251705 1033.84631,771.251705 C1080.07743,771.251705 1117.67015,808.854492 1117.67015,855.076146 C1117.67015,901.345085 1080.0758,938.969068 1033.84468,938.969068 L1033.84631,938.969068 Z M306.64411,409.334261 C303.026448,404.100329 295.862825,402.763312 290.633511,406.337386 L211.571301,460.530597 C201.987756,411.362614 158.724104,374.110386 106.822062,374.110386 C47.9160958,374.110386 -3.55271368e-15,422.057119 -3.55271368e-15,481 C-3.55271368e-15,539.942881 47.9160958,587.889614 106.822062,587.889614 C158.724104,587.889614 201.987756,550.637386 211.571301,501.469403 L290.633511,555.662614 C290.730755,549.451026 295.808098,544.475785 302.016815,544.508219 C308.225533,544.540653 313.250679,549.56867 313.283252,555.780935 C313.31551,561.993199 308.34311,567.073443 302.135069,567.170742 C305.728287,561.915614 304.392034,554.746268 299.139906,551.173824 L222.4911,481 L303.627762,425.354007 C308.878261,421.758736 310.214514,414.58939 306.64411,409.334261 L306.64411,409.334261 Z M106.822062,564.837485 C60.6333183,564.837485 23.0373366,527.218393 23.0373366,481 C23.0373366,434.781607 60.6105042,397.162515 106.822062,397.162515 C153.03362,397.162515 190.606787,434.75878 190.606787,481 C190.583973,527.218393 153.012435,564.837485 106.822062,564.837485 Z M374.225946,370.614576 L455.709708,316.419736 C465.586577,365.587719 510.150632,402.838315 563.643142,402.838315 C617.158466,402.838315 661.745335,365.587719 671.622204,316.396908 L753.105966,370.612946 C756.880068,370.612946 760.585727,368.86178 762.88832,365.610546 C766.59072,360.355417 765.23817,353.186071 759.8019,349.5908 L676.180132,293.944807 L759.8019,238.298814 C765.23817,234.701912 766.59072,227.534197 762.88832,222.277437 C759.18429,217.022308 751.800675,215.708119 746.410032,219.280563 L664.92627,273.498231 C655.073845,224.30579 610.462532,187.055193 556.947208,187.055193 C498.564337,187.055193 451.102893,231.568075 447.56671,287.421142 L354.116961,349.5908 C348.703504,353.186071 347.326511,360.355417 351.030541,365.610546 C353.333134,368.838953 357.059977,370.612946 360.835708,370.612946 L374.225946,370.614576 Z M570.337446,210.084495 C617.963477,210.084495 656.71157,247.703586 656.71157,293.944807 C656.71157,340.161569 617.963477,377.782292 570.337446,377.782292 C522.73423,377.782292 484.01058,340.186027 484.01058,293.944807 C484.01058,247.680759 522.73423,210.084495 570.337446,210.084495 Z M843.557293,183.561014 L922.619503,129.349868 C932.178604,178.535786 975.442256,215.783122 1027.34267,215.783122 C1086.26982,215.783122 1134.20873,167.818454 1134.20873,108.882095 C1140.70423,47.9418407 1092.76532,0 1033.83816,0 C977.167979,0 931.142193,44.5079898 927.708673,100.354536 L837.060168,162.517671 C831.785225,166.112942 830.471786,173.280658 834.066634,178.535786 L843.557293,183.561014 Z M1033.81535,23.0716949 C1080.04972,23.0716949 1117.64407,60.6646983 1117.64407,106.901027 C1117.64407,153.135725 1080.04972,190.751556 1033.81535,190.751556 C987.626607,190.751556 950.055069,153.135725 950.055069,106.901027 C950.077883,60.6646983 987.626607,23.0716949 1033.81535,23.0716949 Z M689.552445,668.07802 L773.167694,612.432027 C778.603965,608.836756 779.958144,601.66741 776.254114,596.435108 C772.550085,591.201176 765.166469,589.842963 759.779086,593.438234 L678.300213,647.655902 C668.446158,598.463461 623.838104,561.16721 570.32441,561.16721 C516.861232,561.16721 472.251549,598.440634 462.397494,647.655902 L380.918621,593.438234 C375.482351,589.818505 368.123179,591.155522 364.419149,596.435108 C360.716749,601.690237 362.093742,608.859583 367.505569,612.432027 L460.95043,674.603315 C464.486613,730.454753 511.923613,774.944807 570.32441,774.944807 C623.838104,774.944807 668.446158,737.69421 678.300213,688.524597 L759.8019,742.719437 C763.577631,742.719437 767.281661,740.966641 769.584254,737.69421 C773.286654,732.437451 771.934104,725.269736 766.497834,721.695661 L682.858141,666.049668 L689.552445,668.07802 Z M570.32441,751.869851 C522.724452,751.869851 484.002432,714.273586 484.002432,668.055193 C484.002432,621.791146 522.724452,584.172054 570.32441,584.172054 C617.948811,584.172054 656.695275,621.791146 656.695275,668.055193 C656.695275,714.296414 617.948811,751.869851 570.32441,751.869851 Z"></path>
            </g>
        </g>
    </g>
</svg>