<?xml version="1.0" encoding="UTF-8"?>
<svg width="5330px" height="3016px" viewBox="0 0 5330 3016" version="1.1" xmlns="http://www.w3.org/2000/svg" xmlns:xlink="http://www.w3.org/1999/xlink">
    <!-- Generator: Sketch 52.2 (67145) - http://www.bohemiancoding.com/sketch -->
    <title>Slice</title>
    <desc>Created with Sketch.</desc>
    <g id="Page-1" stroke="none" stroke-width="1" fill="none" fill-rule="evenodd">
        <g id="drawkit-grape-pack-illustration-10" transform="translate(358.000000, 0.000000)">
            <path d="M3636.51906,402.459018 C4060.15033,670.391103 4939.71972,968.050413 4910.80291,1342.19078 C4881.8861,1715.54521 4867.30843,2521.99118 4599.69238,2919.88819 C4332.07634,3317.7852 3224.27378,3413.72986 2871.89533,3529.72659 C2518.56806,3645.75905 1995.71598,3425.16163 1493.55749,3244.61113 C991.399006,3063.27469 509.934112,2921.12779 244.396464,2640.0849 C-21.1863666,2359.86366 -72.8299827,1939.88905 101.800443,1620.514 C276.430868,1301.13896 676.296137,1081.32747 1047.19941,806.000463 C1419.18707,530.709176 1762.12237,200.652572 2210.64921,101.803494 C2659.17605,2.95441713 3211.84859,134.491209 3636.51906,402.459018 Z" id="Path" fill="#F0F0F0"></path>
            <g id="drawkit-grape-pack-illustration-1" transform="translate(388.000000, 475.000000)">
                <polygon id="Path" stroke="#EAF0FF" stroke-width="3" stroke-linecap="round" stroke-linejoin="round" points="2036.55229 1167 1931 1551 2278 1483.80105"></polygon>
                <circle id="Oval" stroke="#EAF0FF" stroke-width="3" stroke-linecap="round" stroke-linejoin="round" cx="1588" cy="1999" r="134"></circle>
                <circle id="Oval" stroke="#EAF0FF" stroke-width="3" stroke-linecap="round" stroke-linejoin="round" cx="1762" cy="1782" r="71"></circle>
                <polygon id="Path" stroke="#B2C3FB" stroke-width="3" stroke-linecap="round" stroke-linejoin="round" points="964.553479 0 1359 83.8181818 857 461"></polygon>
                <path d="M151.557503,1882.636 C150.468149,1906.70459 132.703292,2078.95201 111,2144 C183.693459,2134.41442 579.841385,2056.09731 699,1987.28206 C689.530996,1922.9038 186.374947,1875.93865 151.557503,1882.636" id="Path" fill="#3C3744"></path>
                <path d="M387.999992,593.498433 C387.999992,636.977487 361.808841,676.175314 321.639433,692.814027 C281.470025,709.452741 235.233036,700.255632 204.488702,669.511298 C173.744368,638.766964 164.547259,592.529975 181.185973,552.360567 C197.824686,512.191159 237.022513,486.000008 280.501567,486.000008 C309.015324,485.988907 336.364419,497.311036 356.526692,517.473308 C376.688964,537.635581 388.011093,564.984676 387.999992,593.498433" id="Path" fill="#EECB55"></path>
                <path d="M724.062667,780.853735 C731.723587,777.254632 742.859131,753.023466 742.859131,717.116141 C742.859131,627.850029 675.041154,586 566.574254,586 C490.844179,586 401.592372,614.29062 344.700624,720.505993 C302.209731,799.435148 284.920333,973.698668 249.462416,1036.39001 C227.023875,1076.02199 179.425702,1156.29034 142.879348,1231.7878 C129.1483,1250.95511 60.1162976,1397.17911 165.527203,1445.22294 C270.938108,1493.26678 760.44157,1473.51356 773.460947,1452.8815 C786.480324,1432.24944 713.303889,1284.89548 689.232694,1255.05641 C665.161498,1225.21734 630.624565,1187.25937 650.300151,1040.49131 C669.975737,893.723263 652.183984,807.219253 669.054752,800.230298 C685.925521,793.241343 706.396503,792.822843 724.062667,780.853735" id="Path" fill="#EECB55"></path>
                <path d="M452,883.5 C452,908.628956 431.628956,929 406.5,929 C381.371044,929 361,908.628956 361,883.5 C361,858.371044 381.371044,838 406.5,838 C431.619426,838.022993 451.977007,858.380574 452,883.5" id="Path" fill="#FFFFFF"></path>
                <path d="M135,1865 C133.89876,1889.03507 115.940083,2061.0426 94,2126" id="Path" stroke="#1B3C87" stroke-width="3.69" stroke-linecap="round" stroke-linejoin="round"></path>
                <path d="M1147.12816,1153.45302 C1182.54009,1097.41269 1172.27272,1032.7862 1157.06026,1052.68094 C1151.98944,1059.34044 1085.81732,1193.32627 1072.61642,1206.93846 C1062.34906,1207.27353 1054.17708,1208.6138 1050.74065,1211.42001 C1037.33022,1222.30976 1042.35913,1298.62179 1037.33022,1305.32317 C1032.3013,1312.02456 840.993057,1605.54525 832.569627,1614.75965 C831.731474,1618.11034 807.42506,1504.9407 800.007413,1484.92031 C780.897542,1500.33349 733.332403,1527.59976 719,1532.24884 C720.634397,1545.19089 728.680658,1705.18647 719,1757.16409 C727.130077,1773.24742 776.245797,1822 797.115788,1822 C837.305187,1822 880.05095,1806.54493 891.28219,1798.79645 C938.176807,1766.6298 1119.13387,1351.26955 1132.37668,1342.64152 C1158.82038,1325.30168 1202.86528,1265.49181 1209.0257,1227.62899 C1209.0257,1210.87552 1222.7714,1199.94389 1147.00243,1153.32737" id="Path" fill="#FFFFFF"></path>
                <path d="M612.510445,1209.78876 C730.535964,1171.21536 837.919494,1439.38435 829.539975,1461.019 C821.160457,1482.65365 702.003703,1547.30602 676.027196,1543.86796 C650.050688,1540.42989 566.674479,1224.67307 612.510445,1209.70491" id="Path" fill="#2D81D6"></path>
                <path d="M595.603273,1192.78738 C713.578416,1154.22276 820.916114,1422.37259 812.540172,1443.96039 C804.164229,1465.54819 685.058334,1530.22776 659.092914,1526.87431 C633.127493,1523.52087 549.535592,1207.75212 595.603273,1192.78738 Z" id="Path" stroke="#1B3C87" stroke-width="3.69" stroke-linecap="round" stroke-linejoin="round"></path>
                <path d="M471.330221,1144.05582 C804.920143,1151.88337 720.654483,1897.25809 705.341062,1923.88011 C684.713966,1959.71101 257.653595,1992.23508 155.815157,1892.27693 C132.259265,1869.17102 154.643638,1136.64686 471.330221,1144.05582" id="Path" fill="#2D81D6"></path>
                <path d="M415,1128.95839 C427.757883,1126.68855 440.713121,1125.72056 453.666436,1126.06931 C556.191077,1128.45594 619.254193,1200.51533 657,1300" id="Path" stroke="#1B3C87" stroke-width="3.69" stroke-linecap="round" stroke-linejoin="round"></path>
                <path d="M705.747793,1569.65334 C714.785211,1738.6449 694.158142,1893.98987 687.338239,1905.87831 C666.71117,1941.71105 239.651353,1974.23679 137.813046,1874.27349 C116.391019,1853.34316 132.959618,1244.94006 374.668697,1141" id="Path" stroke="#1B3C87" stroke-width="3.69" stroke-linecap="round" stroke-linejoin="round"></path>
                <path d="M695.868536,698.125591 C696.538602,739.570679 407.530954,778.796989 405.939548,837.657387 C404.348143,896.517784 403.384924,930.511129 403.384924,930.511129 C413.72906,985.394472 391.323744,1179.43284 385,1199.69488 C409.247997,1222.25943 530.864894,1220.62674 544.140568,1206.97917 C542.423525,1193.33159 542.6748,1100.39412 546.150765,1089.76074 C551.259436,1090.44687 556.407709,1090.79648 561.562272,1090.80733 C654.575747,1090.80733 730,981.082508 730,845.695222 C730,774.945527 728.827385,756.232441 695.952294,698" id="Path" fill="#FFFFFF"></path>
                <path d="M299.149023,1165.77387 C428.603543,1205.94413 351.10696,1519.17999 326.365085,1531.53685 C301.623211,1543.8937 59.1528414,1474.6953 54.2044665,1447.51022 C49.2560916,1420.32513 134.217172,1114.54527 299.149023,1165.77387" id="Path" fill="#2D81D6"></path>
                <path d="M354,1310 C352.954757,1405.30727 322.433668,1507.57495 308.552843,1514.53536 C283.885113,1526.90476 42.1413594,1457.63612 37.2078134,1430.42344 C35.7444734,1422.41478 42.0159302,1390.38013 55.8131351,1350.37875" id="Path" stroke="#1B3C87" stroke-width="3.69" stroke-linecap="round" stroke-linejoin="round"></path>
                <path d="M124,1217 C163.588292,1164.42219 216.400581,1128.40597 281.767296,1148.78302 C287.058866,1150.4065 292.164699,1152.58484 297,1155.28187" id="Path" stroke="#1B3C87" stroke-width="3.69" stroke-linecap="round" stroke-linejoin="round"></path>
                <path d="M907,1460 C960.130815,1379.13074 1017.07164,1292.02466 1019.79308,1288.38303 C1024.81727,1281.68578 1019.79308,1205.42088 1033.19092,1194.53785 C1046.58876,1183.65482 1132,1194.53785 1132,1204.24886 C1132,1213.95987 1097.12374,1246.10666 1088.58262,1248.49255" id="Path" stroke="#1B3C87" stroke-width="3.69" stroke-linecap="round" stroke-linejoin="round"></path>
                <path d="M783,1470 C790.457249,1490.0123 813.966543,1600.26793 814.80917,1596.92558 C816.957869,1594.54416 831.071871,1573.77984 851,1544.03296" id="Path" stroke="#1B3C87" stroke-width="3.69" stroke-linecap="round" stroke-linejoin="round"></path>
                <path d="M1129.16201,1135.49373 C1164.40773,1079.43155 1154.18855,1014.77988 1139.04749,1034.68237 C1134.00047,1041.34447 1068.13894,1175.38251 1055,1189" id="Path" stroke="#1B3C87" stroke-width="3.69" stroke-linecap="round" stroke-linejoin="round"></path>
                <path d="M1141,1151 C1136.3439,1159.9415 1115,1196 1115,1196" id="Path" stroke="#1B3C87" stroke-width="3.69" stroke-linecap="round" stroke-linejoin="round"></path>
                <path d="M1164,1165 C1154.90071,1185.81431 1144.20127,1205.87574 1132,1225" id="Path" stroke="#1B3C87" stroke-width="3.69" stroke-linecap="round" stroke-linejoin="round"></path>
                <path d="M1185,1180 C1174.22987,1203.49163 1161.86744,1226.21177 1148,1248" id="Path" stroke="#1B3C87" stroke-width="3.69" stroke-linecap="round" stroke-linejoin="round"></path>
                <path d="M1129,1313 C1124.58267,1317.37904 1119.77373,1321.34489 1114.63333,1324.84797 C1101.39756,1333.51415 920.536687,1748.65365 873.666997,1780.84831 C862.441727,1788.55159 819.718685,1804 779.550649,1804 C758.607981,1804 714.08387,1762.13438 706,1746.18358" id="Path" stroke="#1B3C87" stroke-width="3.69" stroke-linecap="round" stroke-linejoin="round"></path>
                <path d="M1191,1210 C1188.49016,1225.74478 1179.47943,1245.29002 1168,1264" id="Path" stroke="#1B3C87" stroke-width="3.69" stroke-linecap="round" stroke-linejoin="round"></path>
                <path d="M676,983 C645.040816,1037.93724 598.014739,1073 545.325397,1073 C511.765306,1073 480.344671,1058.69038 454,1034.04603" id="Path" stroke="#1B3C87" stroke-width="3.69" stroke-linecap="round" stroke-linejoin="round"></path>
                <path d="M679,681 C701.906048,726.724876 713.554332,777.233872 712.979728,828.342037 C713.053789,854.125861 710.243176,879.837475 704.600017,905" id="Path" stroke="#1B3C87" stroke-width="3.69" stroke-linecap="round" stroke-linejoin="round"></path>
                <path d="M415,902.970634 C397.102944,915.351856 372.972932,913.224479 357.4974,897.901025 C342.021868,882.57757 339.561385,858.375756 351.633988,840.227318 C363.706592,822.07888 386.910564,815.097535 406.929804,823.590548" id="Path" stroke="#1B3C87" stroke-width="3.69" stroke-linecap="round" stroke-linejoin="round"></path>
                <path d="M554,814.520858 C554,824.15733 549.824176,832 544.479121,832 C539.134066,832 535,824.15733 535,814.520858 C535,804.884386 539.175824,797 544.479121,797 C549.782418,797 554,804.84267 554,814.520858" id="Path" fill="#1B3C87"></path>
                <path d="M641,896 C642.636897,899.226808 644.650983,902.247938 647,905" id="Path" stroke="#1B3C87" stroke-width="3.69" stroke-linecap="round" stroke-linejoin="round"></path>
                <path d="M631.479931,842 C630.621094,854.769735 631.74205,867.59995 634.799931,880" id="Path" stroke="#1B3C87" stroke-width="3.69" stroke-linecap="round" stroke-linejoin="round"></path>
                <path d="M501,931 C502.81774,943.145808 516.202916,958.927096 535,965" id="Path" stroke="#1B3C87" stroke-width="3.69" stroke-linecap="round" stroke-linejoin="round"></path>
                <path d="M527.534899,1189 C525.894899,1175.37786 526.134899,1082.61357 529.454899,1072" id="Path" stroke="#1B3C87" stroke-width="3.69" stroke-linecap="round" stroke-linejoin="round"></path>
                <path d="M379.645946,1100 C375.456757,1141.44284 370.42973,1174.9337 368,1182.75946 C377.635135,1191.76328 402.560811,1196.8963 430,1199" id="Path" stroke="#1B3C87" stroke-width="3.69" stroke-linecap="round" stroke-linejoin="round"></path>
                <path d="M386.687795,913 C390.687795,934.396452 389.647795,976.853066 386.687795,1022" id="Path" stroke="#1B3C87" stroke-width="3.69" stroke-linecap="round" stroke-linejoin="round"></path>
                <path d="M182.918982,649 C158.3024,621.855553 149.175668,584.006329 158.70538,548.584419 C168.235092,513.16251 195.107874,485.049717 230,474" id="Path" stroke="#1B3C87" stroke-width="3.69" stroke-linecap="round" stroke-linejoin="round"></path>
                <path d="M362.515937,534 C378.338095,571.592071 371.699987,614.931148 345.359704,646.01012 C319.019421,677.089091 277.479687,690.59518 238,680.916691" id="Path" stroke="#1B3C87" stroke-width="3.69" stroke-linecap="round" stroke-linejoin="round"></path>
                <path d="M639,580 C694,598.459422 726,637.601788 726,699.105227 C726,735.1011 714.916667,759.392022 707.25,763" id="Path" stroke="#1B3C87" stroke-width="3.69" stroke-linecap="round" stroke-linejoin="round"></path>
                <path d="M263,928 C281.917372,851.740736 299.035082,755.862386 327.494845,702.861571 C380.856901,603.343859 462.595015,572.304708 535,569" id="Path" stroke="#1B3C87" stroke-width="3.69" stroke-linecap="round" stroke-linejoin="round"></path>
                <path d="M126,1214 C151.263158,1161.99887 181.831579,1107.69309 206,1066" id="Path" stroke="#1B3C87" stroke-width="3.69" stroke-linecap="round" stroke-linejoin="round"></path>
                <path d="M631,1155 C632.72,1171.56733 635.32,1185.45033 639,1193" id="Path" stroke="#1B3C87" stroke-width="3.69" stroke-linecap="round" stroke-linejoin="round"></path>
                <path d="M631.828477,1038 C628.908477,1048.61445 627.468477,1082.80722 628.508477,1117" id="Path" stroke="#1B3C87" stroke-width="3.69" stroke-linecap="round" stroke-linejoin="round"></path>
                <path d="M690,653 C690,739.873526 389,747.710163 389,820" id="Path" stroke="#1B3C87" stroke-width="3.69" stroke-linecap="round" stroke-linejoin="round"></path>
                <path d="M841,1922.55041 C870.019695,1927.41798 886.560503,1879.53951 904.231948,1882.09918 C917.12959,1883.9455 978.812146,1891.87629 981.534052,1896.1564 C984.255957,1900.43651 974.16397,1945 974.16397,1945" id="Path" fill="#EAF0FF"></path>
                <polygon id="Rectangle" fill="#EAF0FF" transform="translate(732.330975, 2044.116221) rotate(-80.450000) translate(-732.330975, -2044.116221) " points="594.20655 1821.65996 870.451838 1821.66218 870.4554 2266.57248 594.210112 2266.57027"></polygon>
                <polyline id="Path" stroke="#1B3C87" stroke-width="3.69" stroke-linecap="round" stroke-linejoin="round" points="932 2078 911.400122 2200 657 2157.35841"></polyline>
                <path d="M958,1928 L949,1979" id="Path" stroke="#1B3C87" stroke-width="3.69" stroke-linecap="round" stroke-linejoin="round"></path>
                <polyline id="Path" stroke="#1B3C87" stroke-width="3.69" stroke-linecap="round" stroke-linejoin="round" points="513.017959 2133 473 2126.14106 519.093984 1854 893 1916.73422"></polyline>
                <path d="M824,1905.55041 C853.019695,1910.41798 869.602378,1862.53951 887.231948,1865.09918 C900.12959,1866.9455 961.812146,1874.87629 964.534052,1879.1564 C967.255957,1883.43651 957.16397,1928 957.16397,1928" id="Path" stroke="#1B3C87" stroke-width="3.69" stroke-linecap="round" stroke-linejoin="round"></path>
                <polygon id="Rectangle" fill="#FB5D64" transform="translate(865.805371, 2016.860188) rotate(-80.450000) translate(-865.805371, -2016.860188) " points="806.833986 1984.5361 924.776238 1984.53704 924.776755 2049.18428 806.834504 2049.18333"></polygon>
                <path d="M556,1928 L807,1970" id="Path" stroke="#1B3C87" stroke-width="3.69" stroke-linecap="round" stroke-linejoin="round"></path>
                <path d="M760,2017 L797,2023" id="Path" stroke="#1B3C87" stroke-width="3.69" stroke-linecap="round" stroke-linejoin="round"></path>
                <path d="M547,1981 L691,2005" id="Path" stroke="#1B3C87" stroke-width="3.69" stroke-linecap="round" stroke-linejoin="round"></path>
                <path d="M829,1938.72241 C822.466437,1888.53352 807.347103,1835.24965 700.506599,1839.85029 C686.057374,1828.26503 405.449231,1748.79928 236.246709,1704.96765 C255.93116,1664.35648 278.882394,1540.59904 280.055084,1529.30654 C267.490541,1526.96439 82.0797569,1470 82.0797569,1470 C82.0797569,1470 4.55652207,1793.71834 21.3930107,1820.77852 C125.13426,1886.77691 514.300061,1934.33088 689.994265,1921.99278 C702.307517,1931.65414 700.632245,1937.71863 718.096961,1940.18625 C735.561676,1942.65387 829,1938.72241 829,1938.72241" id="Path" fill="#FFFFFF"></path>
                <path d="M494,1763 C593.854373,1791.67282 675.101042,1816.69866 682.669569,1822.90272 C789.423427,1818.29159 804.47685,1871.48721 811,1922" id="Path" stroke="#1B3C87" stroke-width="3.69" stroke-linecap="round" stroke-linejoin="round"></path>
                <path d="M262.746567,1513 C261.533708,1524.12364 238.614856,1647.86364 219,1688.63636 C277.802747,1703.81636 350.114232,1723.34545 420,1743" id="Path" stroke="#1B3C87" stroke-width="3.69" stroke-linecap="round" stroke-linejoin="round"></path>
                <path d="M719,1875 C724.110357,1892.22111 725.978624,1910.16281 724.518883,1928" id="Path" stroke="#1B3C87" stroke-width="3.69" stroke-linecap="round" stroke-linejoin="round"></path>
                <path d="M751,1875 C756.134261,1892.21332 757.996228,1910.1624 756.49801,1928" id="Path" stroke="#1B3C87" stroke-width="3.69" stroke-linecap="round" stroke-linejoin="round"></path>
                <path d="M777,1875 C782.136155,1892.22002 783.997248,1910.16509 782.496656,1928" id="Path" stroke="#1B3C87" stroke-width="3.69" stroke-linecap="round" stroke-linejoin="round"></path>
                <path d="M7.53866762,1721 C0.208818075,1766.13925 -2.89066116,1799.88901 3.35018217,1803.74134 C148.397433,1895.86226 586.764321,1910.26663 672,1905.07436" id="Path" stroke="#1B3C87" stroke-width="3.69" stroke-linecap="round" stroke-linejoin="round"></path>
                <path d="M65,1453 C63.3872679,1458.59171 48.2360743,1521.18553 33,1592" id="Path" stroke="#1B3C87" stroke-width="3.69" stroke-linecap="round" stroke-linejoin="round"></path>
            </g>
            <path d="M1855.47125,0 C1552.29997,237.248037 1665.135,1198.0281 2286.73167,1319.24287 C3014.68605,1461.18365 3063.88134,718.026683 3615.78198,784.673757 C4095.71951,842.674198 4239.77525,1361.60165 3942.5955,1687" id="Path" stroke="#FFFFFF" stroke-width="6" stroke-linecap="round" stroke-linejoin="round" stroke-dasharray="36"></path>
            <path d="M2519.32159,1642 C2483.68954,1628.37863 2305.78846,1485.01457 2291.92435,1462.39858 C2278.06025,1439.78258 2186,1296.03026 2186,1296.03026 L2340.967,1178 C2340.967,1178 2480.57984,1303.34244 2507.75737,1328.57918 C2534.9349,1353.81591 2639.95226,1394.09762 2651.35451,1394.06527 C2662.75676,1394.03291 2519.32159,1642 2519.32159,1642 Z" id="Path" fill="#FFFFFF"></path>
            <path d="M2478,1601 C2456.76887,1588.75724 2285.81944,1446.50802 2268.95752,1429.66613 C2252.0956,1412.82424 2184.80975,1305.61911 2174,1280" id="Path" stroke="#1B3C87" stroke-width="5.43" stroke-linecap="round" stroke-linejoin="round"></path>
            <path d="M3648.31811,2598 C3611.87426,2614.18881 2958.37725,2764.12956 2845,2765.48942 C2871.11917,2911.7715 2968.15171,3197.95728 2974.94852,3227 C3032.98032,3212.91574 3739.8161,2946.9336 3766,2929.48206 C3744.28258,2887.6178 3660.3258,2683.08838 3648.31811,2598 Z" id="Path" fill="#3B3744"></path>
            <path d="M1511.09191,606.285858 L3274.23656,606.360069 C3318.81167,606.36178 3354.94657,642.496523 3354.94846,687.071636 L3354.97689,1048.36536 C3354.97879,1092.94303 3318.84299,1129.0819 3274.26532,1129.0838 C3274.26315,1129.0838 3274.26097,1129.0838 3274.25879,1129.0838 L1511.11415,1129.00305 C1466.53903,1129.00134 1430.40414,1092.8666 1430.40224,1048.29149 L1430.37382,686.997759 C1430.37192,642.420096 1466.50772,606.281223 1511.08538,606.279327 C1511.08756,606.279327 1511.08974,606.279327 1511.09191,606.279327 Z" id="Rectangle" fill="#4B5577" transform="translate(2392.675353, 867.681561) rotate(-28.400000) translate(-2392.675353, -867.681561) "></path>
            <polyline id="Path" stroke="#FFFFFF" stroke-width="5.3" stroke-linecap="round" stroke-linejoin="round" points="2309 1010 2176 967.248802 2218.71415 834"></polyline>
            <polyline id="Path" stroke="#FFFFFF" stroke-width="5.3" stroke-linecap="round" stroke-linejoin="round" points="2530 674 2663 716.783634 2620.31824 850"></polyline>
            <path d="M2342,662 L2438,1058" id="Path" stroke="#FFFFFF" stroke-width="5.3" stroke-linecap="round" stroke-linejoin="round"></path>
            <path d="M2223.74942,676.707502 C2198.94813,622.796353 2044.06133,679.679237 1978,734.55943 C1996.36654,794.866269 2015.02409,847.937579 2025.66245,859.986026 C2038.69364,861.342688 2231.89796,763.663051 2223.74942,676.707502 Z" id="Path" fill="#FFFFFF"></path>
            <path d="M2927,1497.5665 C2834.65876,1423.07057 2707.44672,1373.19069 2670.66564,1358 C2643.92164,1369.56306 2609.53651,1430.64972 2579.23097,1499.96332 C2525.03068,1601.76362 2508,1725.49163 2508,1725.49163 C2591.92304,1777.67117 2766.018,1811 2796.71208,1811" id="Path" fill="#2D81D6"></path>
            <path d="M3098.39973,1419.60899 C3423.08991,1341.75803 3571.47993,2271.50244 3642,2594.65676 C3572.93696,2646.06105 2960.30603,2800.27393 2838.36913,2761.94731 C2613.59856,2170.15052 2535.5991,1554.52907 3098.39973,1419.60899 Z" id="Path" fill="#2D81D6"></path>
            <path d="M3072.39973,1386.60899 C3397.08991,1308.75803 3545.47993,2238.50244 3616,2561.65676 C3546.93696,2613.06105 2934.30603,2767.27393 2812.36913,2728.94731 C2587.59856,2137.15052 2509.5991,1521.52907 3072.39973,1386.60899 Z" id="Path" stroke="#1B3C87" stroke-width="5.3" stroke-linecap="round" stroke-linejoin="round"></path>
            <path d="M3273,2000.08815 C3255.96588,2024.72766 3100.48906,2200.05348 3075.84464,2212.35704 C3051.20022,2224.66061 2953.43215,2223.07409 2934.6169,2212.35704 C2824.67235,2149.80312 2470.16189,1599.18617 2444.54594,1547.05791 C2418.92999,1494.92964 2382.01194,1421.04349 2348.81808,1393.55474 C2343.47467,1353.11486 2372.45858,1300.17715 2321,1236.13385 C2330.4562,1190.99919 2304.19257,991.551911 2453.77545,1071.84887 C2493.15471,1093.38011 2547.30119,1177.78904 2539.82042,1247.30419 C2532.33966,1316.81934 2523.30445,1395.7888 2538.26598,1428.23136 C2553.22751,1460.67392 2959.58516,1893.14426 2970.07766,1898.38947 C2983.03136,1881.45588 3034.61948,1813.81864 3034.61948,1813.81864 L3273,2000.08815 Z" id="Path" fill="#FFFFFF"></path>
            <path d="M2557,1722 C2532.26606,1712.20214 2508.37152,1700.40981 2485.55301,1686.7398 C2483.63693,1678.98709 2486.59224,1661.63272 2496.10768,1629" id="Path" stroke="#1B3C87" stroke-width="5.43" stroke-linecap="round" stroke-linejoin="round"></path>
            <path d="M2560,1454 C2590.30891,1384.81897 2621.75117,1330.54095 2648.49814,1319 C2685.28331,1334.16164 2806.64849,1379.42026 2899,1453.6444" id="Path" stroke="#1B3C87" stroke-width="5.3" stroke-linecap="round" stroke-linejoin="round"></path>
            <path d="M2772,1684 C2661.55179,1571.92645 2536.13523,1438.85528 2515.30267,1389.32162 C2501.4035,1360.2032 2511.2204,1168.99226 2537.59319,1128" id="Path" stroke="#1B3C87" stroke-width="5.43" stroke-linecap="round" stroke-linejoin="round"></path>
            <path d="M2993,1801 C2976.04899,1818.89603 2961.0066,1841.97932 2947.71106,1859 C2943.89384,1854.59083 2922.0581,1833.06372 2890,1801.22694" id="Path" stroke="#1B3C87" stroke-width="5.43" stroke-linecap="round" stroke-linejoin="round"></path>
            <path d="M3083,2147.84079 C3069.23224,2161.28639 3058.50959,2170.7145 3053.26164,2173.33882 C3028.60925,2185.68285 2930.80957,2184.0629 2911.98823,2173.33882 C2802.00813,2110.74392 2447.38305,1559.76618 2421.75882,1507.60375 C2396.13459,1455.44133 2359.2046,1381.50677 2326,1354" id="Path" stroke="#1B3C87" stroke-width="5.43" stroke-linecap="round" stroke-linejoin="round"></path>
            <path d="M3240,1974 C3234.57942,1981.84651 3216.27279,2003.56279 3193,2030" id="Path" stroke="#1B3C87" stroke-width="5.43" stroke-linecap="round" stroke-linejoin="round"></path>
            <path d="M2475,1218 C2471.73971,1162.81967 2438.876,1045.41541 2414,1020" id="Path" stroke="#1B3C87" stroke-width="5.43" stroke-linecap="round" stroke-linejoin="round"></path>
            <path d="M2419,1218 C2410.19415,1182.15429 2375.00325,1069.76 2339,1014" id="Path" stroke="#1B3C87" stroke-width="5.43" stroke-linecap="round" stroke-linejoin="round"></path>
            <path d="M2371,1245 C2369.42511,1225.88688 2339.34142,1145.32023 2318,1123" id="Path" stroke="#1B3C87" stroke-width="5.43" stroke-linecap="round" stroke-linejoin="round"></path>
            <path d="M2335,1284 C2331,1264.00707 2306.18699,1210.4 2287,1192" id="Path" stroke="#1B3C87" stroke-width="5.43" stroke-linecap="round" stroke-linejoin="round"></path>
            <path d="M3734,2894 C3717.77338,2858.88025 3631.4802,2635.74175 3616,2562" id="Path" stroke="#1B3C87" stroke-width="5.3" stroke-linecap="round" stroke-linejoin="round"></path>
            <path d="M3290,3051 C3264.13957,3029.9905 3162.99296,2899.08517 3120,2840" id="Path" stroke="#1B3C87" stroke-width="5.3" stroke-linecap="round" stroke-linejoin="round"></path>
            <path d="M2942,3192 C2926.97634,3158.90739 2825.27522,2811.51607 2812,2730" id="Path" stroke="#1B3C87" stroke-width="5.3" stroke-linecap="round" stroke-linejoin="round"></path>
            <path d="M2608,1361 C2581.54394,1349.37615 2527.72623,1322.78899 2509,1319" id="Path" stroke="#1B3C87" stroke-width="5.43" stroke-linecap="round" stroke-linejoin="round"></path>
            <polyline id="Path" fill="#D7E0FF" points="1946 1405.96087 2156 1578 2127.07358 1308"></polyline>
            <path d="M2183,632.219823 C2170.27133,618.715107 2057.68396,570.460848 2144.78168,765" id="Path" stroke="#1B3C87" stroke-width="5.43" stroke-linecap="round" stroke-linejoin="round"></path>
            <path d="M2102,659.219823 C2089.08552,645.715107 1976.76186,597.460848 2063.77315,792" id="Path" stroke="#1B3C87" stroke-width="5.43" stroke-linecap="round" stroke-linejoin="round"></path>
            <path d="M2007,704.359683 C1994.70395,693.024028 1899.26472,662.375775 2002.42922,840" id="Path" stroke="#1B3C87" stroke-width="5.43" stroke-linecap="round" stroke-linejoin="round"></path>
            <path d="M3108,1894 C3039.04858,1847.46693 2976.6069,1796.05436 2970,1765" id="Path" stroke="#1B3C87" stroke-width="5.3" stroke-linecap="round" stroke-linejoin="round"></path>
            <polygon id="Path" stroke="#B6C6FC" stroke-width="3.95" stroke-linecap="round" stroke-linejoin="round" points="3985.32213 30 3675 342.242384 4417 514"></polygon>
            <polygon id="Rectangle" stroke="#B6C6FC" stroke-width="3.95" stroke-linecap="round" stroke-linejoin="round" transform="translate(2115.035120, 2744.993107) rotate(-84.300000) translate(-2115.035120, -2744.993107) " points="1870.56349 2467.08159 2359.50191 2467.08584 2359.50675 3022.90462 1870.56833 3022.90037"></polygon>
            <circle id="Oval" stroke="#B6C6FC" stroke-width="3.95" stroke-linecap="round" stroke-linejoin="round" cx="1772" cy="2966" r="269"></circle>
            <path d="M3273,558.903364 C3259.01786,508.588404 3199.91741,497.894059 3170.10826,604 C3157.16183,566.827487 3130.13616,514 3101.94531,514 C3084.33817,514 3059.86942,532.103078 3041,565.088046" id="Path" stroke="#1B3C87" stroke-width="5.43" stroke-linecap="round" stroke-linejoin="round"></path>
            <path d="M3255,1195 C3241.30722,1240.91297 3196.15018,1393.00574 3194.75824,1498.50512 C3172.87569,1511.46573 3025.6864,1517.00639 2986,1487.5534 C2996.94128,1440.96 3015.42491,1308.72936 3010.63406,1262.8164 C3031.18941,1258.73381 3255,1195 3255,1195 Z" id="Path" fill="#FFFFFF"></path>
            <path d="M2989,1340.19071 C2993.76345,1298.59176 2996.61504,1258.28872 2994.37913,1236.80889 C3014.95593,1232.72675 3239,1169 3239,1169 C3225.29294,1214.90788 3180.08879,1366.98381 3178.6954,1472.4715 C3165.27997,1480.44139 3104.81335,1485.59267 3050.82761,1481.64012" id="Path" stroke="#1B3C87" stroke-width="5.3" stroke-linecap="round" stroke-linejoin="round"></path>
            <ellipse id="Oval" fill="#FFFFFF" transform="translate(3112.342483, 1031.801469) rotate(-77.870000) translate(-3112.342483, -1031.801469) " cx="3112.34248" cy="1031.80147" rx="267.168419" ry="209.030493"></ellipse>
            <path d="M3104,1270.82963 C3081.66229,1275.23505 3058.66274,1275.04745 3036.39974,1270.27824 C2979.03997,1257.95303 2933.67067,1216.56625 2907,1160" id="Path" stroke="#1B3C87" stroke-width="5.43" stroke-linecap="round" stroke-linejoin="round"></path>
            <path d="M2884.26769,1081.85022 C2878.75616,1043.02757 2880.22589,1003.53209 2888.60756,965.226711 C2919.66673,820.80793 3036.26009,723.492089 3149.16133,747.691468 C3262.06257,771.890846 3328.39124,908.664308 3297.36445,1052.9859 C3290.91245,1083.31635 3280.27392,1112.60166 3265.7547,1140" id="Path" stroke="#1B3C87" stroke-width="5.43" stroke-linecap="round" stroke-linejoin="round"></path>
            <path d="M3321.57867,1098.15532 C3325.72728,1084.19414 3367.86162,1004.60575 3363.71301,877.886257 C3361.02289,794.50794 3295.09886,630.763809 3295.26092,609.028436 C3295.81191,540 3223.37326,508.611659 3189.24444,630.504669 C3176.28003,593.123714 3149.21682,540 3120.98682,540 C3092.75681,540 3046.83039,586.580427 3035.00036,666.589924 C3031.07863,640.999842 3008.09921,611.522659 2994.97274,611.522659 C2981.84628,611.522659 2950.34276,613.498602 2951.67161,722.369823 C2941.17043,709.250857 2918.19102,701.379478 2906.29617,701.379478 C2881.92308,701.379478 2847.72944,818.348826 2944.86529,893.952941 C2950.31034,883.652123 2965.57594,861.884358 2966.48345,861.884358 C2984.34192,866.710841 3157.02788,909.760485 3261.84515,924.175152 C3259.21985,939.885518 3223.2112,1104.24511 3263.174,1154 C3289.60601,1144.37738 3310.79112,1124.12086 3321.57867,1098.15532 Z" id="Path" fill="#706061"></path>
            <path d="M3015,1005 C3010.57112,1022.94951 2983.64224,1052.64778 2970,1058" id="Path" stroke="#1B3C87" stroke-width="5.43" stroke-linecap="round" stroke-linejoin="round"></path>
            <ellipse id="Oval" fill="#1B3C87" transform="translate(3129.244091, 993.989358) rotate(-69.800000) translate(-3129.244091, -993.989358) " cx="3129.24409" cy="993.989358" rx="22.4395756" ry="13.3092122"></ellipse>
            <path d="M3091,1140 C3085.81277,1151.44239 3054.62492,1177.93715 3038,1180" id="Path" stroke="#1B3C87" stroke-width="5.43" stroke-linecap="round" stroke-linejoin="round"></path>
            <path d="M3243,898 C3235.72072,933.359871 3230.37971,969.077921 3227,1005" id="Path" stroke="#1B3C87" stroke-width="5.43" stroke-linecap="round" stroke-linejoin="round"></path>
            <path d="M3016.02701,640.126284 C3012.1046,614.508776 2989.12123,585 2975.99251,585 C2962.86378,585 2931.35485,586.978061 2932.68393,695.965967 C2922.18095,682.832941 2899.19758,674.953125 2887.30069,674.953125 C2862.92341,674.953125 2828.72389,792.047838 2925.87644,867.732984 C2931.32243,857.421126 2946.59065,835.63003 2947.49832,835.63003 C2962.18304,839.618579 3081.70304,869.484054 3182,888" id="Path" stroke="#1B3C87" stroke-width="5.43" stroke-linecap="round" stroke-linejoin="round"></path>
            <path d="M3316.17201,1035 C3337.3664,976.05222 3347.02917,913.660523 3344.64584,851.146789 C3343.10583,804.584458 3321.7095,732.927685 3303,675" id="Path" stroke="#1B3C87" stroke-width="5.43" stroke-linecap="round" stroke-linejoin="round"></path>
            <circle id="Oval" fill="#FFFFFF" cx="3275.5" cy="1126.5" r="53.5"></circle>
            <path d="M3249.87606,1060.74091 C3272.35638,1053.23199 3297.07617,1061.52059 3310.54697,1081.08399 C3324.01778,1100.64739 3323.0051,1126.78818 3308.0615,1145.24253 C3293.1179,1163.69687 3267.83153,1170.03365 3246,1160.79517" id="Path" stroke="#1B3C87" stroke-width="5.43" stroke-linecap="round" stroke-linejoin="round"></path>
        </g>
    </g>
</svg>